HIERARCHY
ROOT Hips
{
	OFFSET -0.001795 -0.223333 0.028219
	CHANNELS 6 Xposition Yposition Zposition Zrotation Yrotation Xrotation 
	JOINT LeftUpLeg
	{
		OFFSET 0.069520 -0.091406 -0.006815
		CHANNELS 3 Zrotation Yrotation Xrotation
		JOINT LeftLeg
		{
			OFFSET 0.034277 -0.375199 -0.004496
			CHANNELS 3 Zrotation Yrotation Xrotation
			JOINT LeftFoot
			{
				OFFSET -0.013596 -0.397961 -0.043693
				CHANNELS 3 Zrotation Yrotation Xrotation
				JOINT LeftToe
				{
					OFFSET 0.026358 -0.055791 0.119288
					CHANNELS 3 Zrotation Yrotation Xrotation
					End Site
					{
						OFFSET 0.000000 0.000000 0.000000
					}
				}
			}
		}
	}
	JOINT RightUpLeg
	{
		OFFSET -0.067670 -0.090522 -0.004320
		CHANNELS 3 Zrotation Yrotation Xrotation
		JOINT RightLeg
		{
			OFFSET -0.038290 -0.382569 -0.008850
			CHANNELS 3 Zrotation Yrotation Xrotation
			JOINT RightFoot
			{
				OFFSET 0.015774 -0.398415 -0.042312
				CHANNELS 3 Zrotation Yrotation Xrotation
				JOINT RightToe
				{
					OFFSET -0.025372 -0.048144 0.123348
					CHANNELS 3 Zrotation Yrotation Xrotation
					End Site
					{
						OFFSET 0.000000 0.000000 0.000000
					}
				}
			}
		}
	}
	JOINT Spine
	{
		OFFSET -0.002533 0.108963 -0.026696
		CHANNELS 3 Zrotation Yrotation Xrotation
		JOINT Spine1
		{
			OFFSET 0.005487 0.135180 0.001092
			CHANNELS 3 Zrotation Yrotation Xrotation
			JOINT Spine2
			{
				OFFSET 0.001457 0.052922 0.025425
				CHANNELS 3 Zrotation Yrotation Xrotation
				JOINT Neck
				{
					OFFSET -0.002778 0.213870 -0.042857
					CHANNELS 3 Zrotation Yrotation Xrotation
					JOINT Head
					{
						OFFSET 0.005152 0.064970 0.051349
						CHANNELS 3 Zrotation Yrotation Xrotation
						End Site
						{
							OFFSET 0.000000 0.000000 0.000000
						}
					}
				}
				JOINT LeftShoulder
				{
					OFFSET 0.078845 0.121749 -0.034090
					CHANNELS 3 Zrotation Yrotation Xrotation
					JOINT LeftArm
					{
						OFFSET 0.090977 0.030469 -0.008868
						CHANNELS 3 Zrotation Yrotation Xrotation
						JOINT LeftForeArm
						{
							OFFSET 0.259612 -0.012772 -0.027456
							CHANNELS 3 Zrotation Yrotation Xrotation
							JOINT LeftHand
							{
								OFFSET 0.249234 0.008986 -0.001171
								CHANNELS 3 Zrotation Yrotation Xrotation
								End Site
								{
									OFFSET 0.000000 0.000000 0.000000
								}
							}
						}
					}
				}
				JOINT RightShoulder
				{
					OFFSET -0.081759 0.118833 -0.038615
					CHANNELS 3 Zrotation Yrotation Xrotation
					JOINT RightArm
					{
						OFFSET -0.096012 0.032551 -0.009143
						CHANNELS 3 Zrotation Yrotation Xrotation
						JOINT RightForeArm
						{
							OFFSET -0.253742 -0.013329 -0.021401
							CHANNELS 3 Zrotation Yrotation Xrotation
							JOINT RightHand
							{
								OFFSET -0.255298 0.007772 -0.005559
								CHANNELS 3 Zrotation Yrotation Xrotation
								End Site
								{
									OFFSET 0.000000 0.000000 0.000000
								}
							}
						}
					}
				}
			}
		}
	}
}
MOTION
Frames: 16
Frame Time: 0.050000
0.103112 0.943331 0.124660 3.396045 -30.302965 8.755402 0.843467 -0.501582 -21.246980 -3.674284 1.068048 8.453152 10.553553 17.804301 16.281048 0.000000 0.000000 0.000000 -10.629980 3.102521 -27.711503 -1.280699 1.145821 11.952841 19.332405 17.668638 25.338942 0.000000 0.000000 0.000000 7.550532 -0.818245 28.130074 2.349729 -0.978808 -2.090845 -6.089578 10.765462 7.116049 16.891686 -7.460182 -24.124702 0.000000 0.000000 0.000000 20.954053 -43.683237 8.327840 26.486853 -67.786489 -20.034416 12.965066 4.623695 0.380959 0.000000 0.000000 0.000000 -16.472853 31.996357 7.580401 -4.220870 49.281812 -5.166264 -11.363923 -9.000001 0.846582 0.000000 0.000000 0.000000 
0.117003 0.944372 0.130392 3.802524 -29.516346 8.797862 -0.339441 -0.784338 -21.443056 -4.288995 1.084749 6.848829 11.543478 18.955855 18.766896 0.000000 0.000000 0.000000 -12.088235 2.919490 -27.729217 -1.722206 1.096570 11.084357 20.620263 17.548386 28.081955 0.000000 0.000000 0.000000 7.580274 -0.889219 28.246051 2.569122 -1.063809 -1.946522 -5.620606 11.312656 7.253721 17.435597 -7.762608 -23.773208 0.000000 0.000000 0.000000 21.696765 -43.323318 8.022865 31.668199 -68.074458 -23.795191 14.261639 5.122323 0.482239 0.000000 0.000000 0.000000 -15.897195 31.313825 7.524153 -4.009880 46.939212 -4.629420 -11.859695 -9.871329 0.968126 0.000000 0.000000 0.000000 
0.129980 0.946405 0.136971 3.740594 -28.790894 9.083336 -1.171874 -0.983237 -21.505496 -4.716885 1.069317 5.318363 12.493039 19.988368 21.242278 0.000000 0.000000 0.000000 -12.901166 2.829701 -27.963597 -2.103767 1.156388 11.148730 20.912592 16.594155 29.807528 0.000000 0.000000 0.000000 8.250985 -1.112214 28.548375 2.969783 -1.214992 -1.494723 -5.822975 11.884741 6.503592 18.172473 -8.054942 -23.616126 0.000000 0.000000 0.000000 21.944565 -42.903378 7.953327 36.657904 -68.516438 -27.739777 16.407051 6.119683 0.702445 0.000000 0.000000 0.000000 -14.782552 30.528656 7.578252 -4.559064 44.768823 -4.361152 -12.075590 -9.994559 1.015199 0.000000 0.000000 0.000000 
0.140294 0.947993 0.144135 3.810829 -27.945771 9.161962 -2.295870 -1.246807 -21.354668 -4.371536 0.951429 4.987524 12.004224 19.478164 20.981608 0.000000 0.000000 0.000000 -13.799801 2.682155 -27.984901 -2.757432 1.288630 11.433595 22.083103 17.382702 31.439341 0.000000 0.000000 0.000000 8.489993 -1.254074 28.538402 3.486595 -1.411145 -0.655737 -6.008056 12.317099 5.805183 18.510413 -8.486341 -22.199721 0.000000 0.000000 0.000000 21.142838 -42.899143 8.305695 42.351790 -68.843571 -32.248471 18.066018 6.731314 0.884556 0.000000 0.000000 0.000000 -12.928923 30.013786 7.861741 -4.692180 43.019882 -4.049697 -12.920769 -10.659467 1.181356 0.000000 0.000000 0.000000 
0.147182 0.949406 0.151582 3.757403 -26.897774 9.491248 -2.987020 -1.415219 -20.844136 -4.274105 0.857144 3.909901 11.380907 18.799018 20.639983 0.000000 0.000000 0.000000 -14.068817 2.592847 -28.138302 -3.606982 1.480706 11.846828 22.534730 17.074034 32.898485 0.000000 0.000000 0.000000 8.710965 -1.434906 27.802091 3.744068 -1.508499 -0.104434 -6.210244 12.262767 5.109629 19.013258 -9.084810 -20.736982 0.000000 0.000000 0.000000 21.233256 -42.830256 8.340825 46.848505 -69.443655 -36.049449 18.719626 7.637709 1.054067 0.000000 0.000000 0.000000 -11.071360 29.452641 8.165444 -3.940070 42.920293 -3.751664 -13.853263 -11.610953 1.392271 0.000000 0.000000 0.000000 
0.150777 0.949724 0.158332 3.776802 -26.191375 9.280648 -3.331449 -1.492355 -19.904440 -4.507726 0.864955 3.174213 10.991778 18.434192 20.107178 0.000000 0.000000 0.000000 -13.960576 2.564407 -28.432717 -4.361256 1.808534 13.184213 17.812263 11.947134 29.462479 0.000000 0.000000 0.000000 8.440075 -1.433455 27.258525 4.040149 -1.630968 0.568164 -6.427060 12.428729 4.981175 19.291106 -9.297936 -20.400108 0.000000 0.000000 0.000000 21.756735 -42.029050 8.069509 50.616273 -70.686208 -40.067097 19.955903 7.907405 1.189611 0.000000 0.000000 0.000000 -8.875025 29.102891 8.553999 -2.193543 43.495504 -3.209706 -15.609931 -13.108468 1.796330 0.000000 0.000000 0.000000 
0.151614 0.950066 0.163441 3.786832 -25.571087 9.267765 -3.373074 -1.507615 -19.198350 -4.864260 0.898623 2.449637 10.620449 18.049731 19.751733 0.000000 0.000000 0.000000 -13.727942 2.532342 -28.471401 -4.582276 1.919201 13.665307 11.093879 5.021180 23.066433 0.000000 0.000000 0.000000 7.599453 -1.285757 26.979288 4.220906 -1.714075 0.768040 -6.047864 12.445540 4.926538 19.446293 -9.534562 -19.781485 0.000000 0.000000 0.000000 21.160217 -41.909984 8.275479 51.765851 -71.732987 -41.917067 19.853721 7.763450 1.169738 0.000000 0.000000 0.000000 -7.295385 28.639231 8.793284 1.398158 45.165793 -2.140076 -17.731765 -13.171390 2.120893 0.000000 0.000000 0.000000 
0.150238 0.950173 0.166823 3.902029 -25.168008 9.299689 -3.548625 -1.550684 -19.264235 -4.808454 0.897281 2.842794 10.413001 17.839914 19.486594 0.000000 0.000000 0.000000 -13.627080 2.561408 -29.009527 -4.851415 2.157567 14.859151 8.203979 3.109238 18.464687 0.000000 0.000000 0.000000 7.221565 -1.229975 26.710489 4.004944 -1.616940 1.143110 -5.981105 12.004098 5.019359 18.593760 -8.838195 -20.507063 0.000000 0.000000 0.000000 19.978717 -41.218118 8.528275 50.306318 -73.679134 -42.332951 21.030764 7.104198 1.161532 0.000000 0.000000 0.000000 -6.200188 28.588304 9.023541 4.764501 47.051201 -1.070642 -19.163556 -13.380230 2.358739 0.000000 0.000000 0.000000 
0.146785 0.949809 0.169029 3.835123 -25.263603 9.148479 -3.513011 -1.526313 -18.599939 -4.536986 0.828692 2.435632 10.501513 17.997520 19.242122 0.000000 0.000000 0.000000 -13.387667 2.669795 -29.796300 -4.503377 2.260208 15.957531 5.813147 1.379418 14.481708 0.000000 0.000000 0.000000 6.465656 -1.034297 26.643932 4.329801 -1.754028 1.613384 -6.286701 11.492162 4.647356 17.640188 -8.386659 -20.143992 0.000000 0.000000 0.000000 17.807966 -40.809673 9.130418 41.231604 -75.342217 -36.330431 21.249317 5.461949 0.929903 0.000000 0.000000 0.000000 -4.559548 28.072880 9.215455 9.547847 50.574744 0.747329 -22.184118 -12.358851 2.627894 0.000000 0.000000 0.000000 
0.140490 0.949222 0.171146 3.351124 -25.799917 9.108465 -2.787196 -1.394929 -18.385251 -4.423929 0.839363 3.062961 10.887418 18.544935 18.900101 0.000000 0.000000 0.000000 -12.203302 2.888062 -30.108226 -4.799969 2.373059 16.141387 4.719254 1.112193 11.720335 0.000000 0.000000 0.000000 6.155478 -0.913771 26.744616 3.612161 -1.448400 0.881813 -5.735887 10.621449 5.381262 16.540693 -7.935451 -20.010354 0.000000 0.000000 0.000000 14.389081 -39.559415 9.855111 24.013191 -77.542492 -23.708631 21.838794 3.031194 0.574772 0.000000 0.000000 0.000000 -3.499029 26.812273 8.929829 15.573398 53.619946 3.285836 -24.928019 -8.807828 2.287945 0.000000 0.000000 0.000000 
0.130541 0.948203 0.173991 2.728587 -25.809149 9.216030 -1.819266 -1.232629 -18.010133 -4.208933 0.816072 3.522451 11.003196 18.811870 18.215168 0.000000 0.000000 0.000000 -11.021714 3.074596 -30.366810 -4.825836 2.364029 16.014864 3.710471 -0.519527 11.056020 0.000000 0.000000 0.000000 5.722658 -0.863964 25.518691 3.731794 -1.461230 1.999197 -6.340292 9.294949 4.361568 15.418742 -7.714637 -18.364693 0.000000 0.000000 0.000000 10.078325 -38.502332 10.942664 -1.816215 -76.688136 -3.379677 21.820558 -0.164504 0.084867 0.000000 0.000000 0.000000 -1.229351 25.051478 8.674463 25.241719 55.673137 7.908999 -29.407656 -1.813991 1.121515 0.000000 0.000000 0.000000 
0.116766 0.946250 0.178045 1.939098 -25.761395 9.077392 -0.529902 -1.018696 -17.648820 -3.941272 0.825558 4.958025 11.133762 19.193714 17.081357 0.000000 0.000000 0.000000 -9.540627 3.238742 -30.142618 -4.564738 2.408704 16.578648 2.649052 -1.935660 9.947093 0.000000 0.000000 0.000000 5.570783 -0.846566 25.059780 3.789079 -1.515199 1.047305 -6.771199 8.475837 4.879506 15.514079 -8.315061 -16.554774 0.000000 0.000000 0.000000 7.438150 -36.893368 11.255219 -23.692302 -74.217635 12.500731 21.440432 -3.607183 -0.432233 0.000000 0.000000 0.000000 1.211691 22.785594 8.106450 36.474226 55.622897 13.080694 -33.597543 7.671383 -1.285479 0.000000 0.000000 0.000000 
0.100357 0.943938 0.183293 1.237613 -25.865667 8.598606 0.654745 -0.812697 -17.065276 -3.421825 0.813017 6.897197 11.319432 19.680361 15.930578 0.000000 0.000000 0.000000 -7.861204 3.335581 -29.245246 -4.961415 2.539237 16.714735 2.882658 -1.286963 9.629009 0.000000 0.000000 0.000000 5.380319 -0.844304 23.530323 3.315790 -1.293610 1.483584 -6.907830 7.473228 4.612714 14.381466 -7.984537 -15.329131 0.000000 0.000000 0.000000 2.837351 -35.267529 12.127809 -38.734763 -68.188352 20.500803 21.535464 -9.588409 -1.323783 0.000000 0.000000 0.000000 4.268260 20.369318 7.359713 48.021093 50.819173 16.322065 -39.005691 23.135201 -6.734604 0.000000 0.000000 0.000000 
0.082485 0.942134 0.189753 0.735453 -26.146232 7.429655 1.796867 -0.610760 -15.857700 -3.073023 0.875547 9.158382 11.494477 20.122025 15.123066 0.000000 0.000000 0.000000 -6.735597 3.323499 -28.204013 -4.412781 2.575016 17.554322 3.136188 -0.816586 9.642201 0.000000 0.000000 0.000000 5.670462 -0.898705 22.570735 3.111105 -1.215788 1.441329 -7.779056 6.726497 4.988360 13.221558 -7.777150 -13.457609 0.000000 0.000000 0.000000 -0.378385 -32.472352 12.020921 -48.833449 -61.983263 23.376088 19.726897 -15.433036 -1.943361 0.000000 0.000000 0.000000 7.277086 16.624666 5.864888 54.571029 42.337611 14.587023 -40.084704 43.556686 -14.640398 0.000000 0.000000 0.000000 
0.064719 0.941402 0.196587 0.329299 -25.799078 6.432849 2.435626 -0.514320 -14.194144 -2.010441 0.659210 10.128929 11.309655 20.007218 14.643275 0.000000 0.000000 0.000000 -5.114877 3.212750 -26.483506 -4.915316 2.751756 17.816745 3.017162 -0.514412 8.907458 0.000000 0.000000 0.000000 5.842381 -0.964219 21.292387 2.558187 -0.947175 2.203929 -7.583929 6.026704 4.540828 11.900242 -7.477897 -10.803525 0.000000 0.000000 0.000000 -4.333694 -29.437539 11.877369 -52.757004 -53.876240 20.588086 16.082138 -24.619882 -2.358096 0.000000 0.000000 0.000000 10.027339 12.889827 4.176538 56.307073 31.886605 9.756616 -34.884074 62.219009 -19.559334 0.000000 0.000000 0.000000 
0.047902 0.942114 0.203130 0.225782 -26.221045 5.275047 2.970800 -0.407310 -12.262698 -1.421509 0.557800 10.714931 11.434425 20.117759 15.155482 0.000000 0.000000 0.000000 -4.238883 3.033371 -24.759368 -4.764414 2.710900 17.686160 3.418645 0.423932 8.705987 0.000000 0.000000 0.000000 5.884514 -0.947790 20.057270 2.059221 -0.718985 2.283528 -8.070748 6.242131 5.602338 10.300364 -6.778390 -9.180113 0.000000 0.000000 0.000000 -6.122419 -26.438894 11.008450 -55.243868 -47.387897 17.654999 11.171602 -31.086306 -1.601922 0.000000 0.000000 0.000000 10.655278 8.607414 2.238475 57.439489 21.014831 4.309842 -10.860605 80.286273 -7.300298 0.000000 0.000000 0.000000 
